
<svg width="1584" height="396" viewBox="0 0 1584 396" xmlns="http://www.w3.org/2000/svg">
  <defs>
    <linearGradient id="glow" x1="0%" y1="0%" x2="0%" y2="100%">
      <stop offset="0%" stop-color="undefined" stop-opacity="0.1" />
      <stop offset="100%" stop-color="undefined" stop-opacity="0" />
    </linearGradient>
    <linearGradient id="scanline" x1="0%" y1="0%" x2="0%" y2="100%">
      <stop offset="0%" stop-color="transparent"/>
      <stop offset="50%" stop-color="undefined" stop-opacity="0.2"/>
      <stop offset="100%" stop-color="transparent"/>
    </linearGradient>
    <linearGradient id="ascii-gradient" x1="0%" y1="0%" x2="0%" y2="100%">
      <stop offset="0%" stop-color="undefined" />
      <stop offset="50%" stop-color="undefined" stop-opacity="0.8" />
      <stop offset="100%" stop-color="undefined" stop-opacity="0.4" />
    </linearGradient>
    <style>
      .bg { fill: undefined; }
      .mono { font-family: 'Courier New', Consolas, monospace; }
      .ascii { font-family: 'Courier New', Consolas, monospace; font-size: 6.5px; letter-spacing: -0.15px; fill: url(#ascii-gradient); }
      .title { font-size: 42px; font-weight: 700; fill: undefined; text-shadow: 0 0 8px undefined80; }
      .subtitle { font-size: 24px; font-weight: 600; fill: undefined; letter-spacing: 1px; }
      .handle { font-size: 18px; fill: undefined; letter-spacing: 2px; }
      .quote { font-size: 14px; fill: undefined; font-style: italic; }
      .grid { stroke: undefined; stroke-opacity: 0.08; stroke-width: 1; }
      text, tspan { white-space: pre; }
    </style>
  </defs>
  
  <rect class="bg" width="1584" height="396" />
  <rect width="1584" height="396" fill="url(#glow)" />
  
  <!-- Grid Pattern -->
  <g class="grid">
    <line x1="0" y1="0" x2="1584" y2="0" /><line x1="0" y1="40" x2="1584" y2="40" /><line x1="0" y1="80" x2="1584" y2="80" /><line x1="0" y1="120" x2="1584" y2="120" /><line x1="0" y1="160" x2="1584" y2="160" /><line x1="0" y1="200" x2="1584" y2="200" /><line x1="0" y1="240" x2="1584" y2="240" /><line x1="0" y1="280" x2="1584" y2="280" /><line x1="0" y1="320" x2="1584" y2="320" /><line x1="0" y1="360" x2="1584" y2="360" /><line x1="0" y1="400" x2="1584" y2="400" /><line x1="0" y1="440" x2="1584" y2="440" /><line x1="0" y1="480" x2="1584" y2="480" /><line x1="0" y1="520" x2="1584" y2="520" /><line x1="0" y1="560" x2="1584" y2="560" /><line x1="0" y1="600" x2="1584" y2="600" /><line x1="0" y1="640" x2="1584" y2="640" /><line x1="0" y1="680" x2="1584" y2="680" /><line x1="0" y1="720" x2="1584" y2="720" /><line x1="0" y1="760" x2="1584" y2="760" /><line x1="0" y1="800" x2="1584" y2="800" /><line x1="0" y1="840" x2="1584" y2="840" /><line x1="0" y1="880" x2="1584" y2="880" /><line x1="0" y1="920" x2="1584" y2="920" /><line x1="0" y1="960" x2="1584" y2="960" /><line x1="0" y1="1000" x2="1584" y2="1000" /><line x1="0" y1="1040" x2="1584" y2="1040" /><line x1="0" y1="1080" x2="1584" y2="1080" /><line x1="0" y1="1120" x2="1584" y2="1120" /><line x1="0" y1="1160" x2="1584" y2="1160" /><line x1="0" y1="1200" x2="1584" y2="1200" /><line x1="0" y1="1240" x2="1584" y2="1240" /><line x1="0" y1="1280" x2="1584" y2="1280" /><line x1="0" y1="1320" x2="1584" y2="1320" /><line x1="0" y1="1360" x2="1584" y2="1360" /><line x1="0" y1="1400" x2="1584" y2="1400" /><line x1="0" y1="1440" x2="1584" y2="1440" /><line x1="0" y1="1480" x2="1584" y2="1480" /><line x1="0" y1="1520" x2="1584" y2="1520" /><line x1="0" y1="1560" x2="1584" y2="1560" />
    <line x1="0" y1="0" x2="0" y2="396" /><line x1="40" y1="0" x2="40" y2="396" /><line x1="80" y1="0" x2="80" y2="396" /><line x1="120" y1="0" x2="120" y2="396" /><line x1="160" y1="0" x2="160" y2="396" /><line x1="200" y1="0" x2="200" y2="396" /><line x1="240" y1="0" x2="240" y2="396" /><line x1="280" y1="0" x2="280" y2="396" /><line x1="320" y1="0" x2="320" y2="396" /><line x1="360" y1="0" x2="360" y2="396" /><line x1="400" y1="0" x2="400" y2="396" /><line x1="440" y1="0" x2="440" y2="396" /><line x1="480" y1="0" x2="480" y2="396" /><line x1="520" y1="0" x2="520" y2="396" /><line x1="560" y1="0" x2="560" y2="396" /><line x1="600" y1="0" x2="600" y2="396" /><line x1="640" y1="0" x2="640" y2="396" /><line x1="680" y1="0" x2="680" y2="396" /><line x1="720" y1="0" x2="720" y2="396" /><line x1="760" y1="0" x2="760" y2="396" /><line x1="800" y1="0" x2="800" y2="396" /><line x1="840" y1="0" x2="840" y2="396" /><line x1="880" y1="0" x2="880" y2="396" /><line x1="920" y1="0" x2="920" y2="396" /><line x1="960" y1="0" x2="960" y2="396" /><line x1="1000" y1="0" x2="1000" y2="396" /><line x1="1040" y1="0" x2="1040" y2="396" /><line x1="1080" y1="0" x2="1080" y2="396" /><line x1="1120" y1="0" x2="1120" y2="396" /><line x1="1160" y1="0" x2="1160" y2="396" /><line x1="1200" y1="0" x2="1200" y2="396" /><line x1="1240" y1="0" x2="1240" y2="396" /><line x1="1280" y1="0" x2="1280" y2="396" /><line x1="1320" y1="0" x2="1320" y2="396" /><line x1="1360" y1="0" x2="1360" y2="396" /><line x1="1400" y1="0" x2="1400" y2="396" /><line x1="1440" y1="0" x2="1440" y2="396" /><line x1="1480" y1="0" x2="1480" y2="396" /><line x1="1520" y1="0" x2="1520" y2="396" /><line x1="1560" y1="0" x2="1560" y2="396" /><line x1="1600" y1="0" x2="1600" y2="396" /><line x1="1640" y1="0" x2="1640" y2="396" /><line x1="1680" y1="0" x2="1680" y2="396" /><line x1="1720" y1="0" x2="1720" y2="396" /><line x1="1760" y1="0" x2="1760" y2="396" /><line x1="1800" y1="0" x2="1800" y2="396" /><line x1="1840" y1="0" x2="1840" y2="396" /><line x1="1880" y1="0" x2="1880" y2="396" /><line x1="1920" y1="0" x2="1920" y2="396" /><line x1="1960" y1="0" x2="1960" y2="396" /><line x1="2000" y1="0" x2="2000" y2="396" /><line x1="2040" y1="0" x2="2040" y2="396" /><line x1="2080" y1="0" x2="2080" y2="396" /><line x1="2120" y1="0" x2="2120" y2="396" /><line x1="2160" y1="0" x2="2160" y2="396" /><line x1="2200" y1="0" x2="2200" y2="396" /><line x1="2240" y1="0" x2="2240" y2="396" /><line x1="2280" y1="0" x2="2280" y2="396" /><line x1="2320" y1="0" x2="2320" y2="396" /><line x1="2360" y1="0" x2="2360" y2="396" /><line x1="2400" y1="0" x2="2400" y2="396" /><line x1="2440" y1="0" x2="2440" y2="396" /><line x1="2480" y1="0" x2="2480" y2="396" /><line x1="2520" y1="0" x2="2520" y2="396" /><line x1="2560" y1="0" x2="2560" y2="396" /><line x1="2600" y1="0" x2="2600" y2="396" /><line x1="2640" y1="0" x2="2640" y2="396" /><line x1="2680" y1="0" x2="2680" y2="396" /><line x1="2720" y1="0" x2="2720" y2="396" /><line x1="2760" y1="0" x2="2760" y2="396" /><line x1="2800" y1="0" x2="2800" y2="396" /><line x1="2840" y1="0" x2="2840" y2="396" /><line x1="2880" y1="0" x2="2880" y2="396" /><line x1="2920" y1="0" x2="2920" y2="396" /><line x1="2960" y1="0" x2="2960" y2="396" /><line x1="3000" y1="0" x2="3000" y2="396" /><line x1="3040" y1="0" x2="3040" y2="396" /><line x1="3080" y1="0" x2="3080" y2="396" /><line x1="3120" y1="0" x2="3120" y2="396" /><line x1="3160" y1="0" x2="3160" y2="396" /><line x1="3200" y1="0" x2="3200" y2="396" /><line x1="3240" y1="0" x2="3240" y2="396" /><line x1="3280" y1="0" x2="3280" y2="396" /><line x1="3320" y1="0" x2="3320" y2="396" /><line x1="3360" y1="0" x2="3360" y2="396" /><line x1="3400" y1="0" x2="3400" y2="396" /><line x1="3440" y1="0" x2="3440" y2="396" /><line x1="3480" y1="0" x2="3480" y2="396" /><line x1="3520" y1="0" x2="3520" y2="396" /><line x1="3560" y1="0" x2="3560" y2="396" /><line x1="3600" y1="0" x2="3600" y2="396" /><line x1="3640" y1="0" x2="3640" y2="396" /><line x1="3680" y1="0" x2="3680" y2="396" /><line x1="3720" y1="0" x2="3720" y2="396" /><line x1="3760" y1="0" x2="3760" y2="396" /><line x1="3800" y1="0" x2="3800" y2="396" /><line x1="3840" y1="0" x2="3840" y2="396" /><line x1="3880" y1="0" x2="3880" y2="396" /><line x1="3920" y1="0" x2="3920" y2="396" /><line x1="3960" y1="0" x2="3960" y2="396" /><line x1="4000" y1="0" x2="4000" y2="396" /><line x1="4040" y1="0" x2="4040" y2="396" /><line x1="4080" y1="0" x2="4080" y2="396" /><line x1="4120" y1="0" x2="4120" y2="396" /><line x1="4160" y1="0" x2="4160" y2="396" /><line x1="4200" y1="0" x2="4200" y2="396" /><line x1="4240" y1="0" x2="4240" y2="396" /><line x1="4280" y1="0" x2="4280" y2="396" /><line x1="4320" y1="0" x2="4320" y2="396" /><line x1="4360" y1="0" x2="4360" y2="396" /><line x1="4400" y1="0" x2="4400" y2="396" /><line x1="4440" y1="0" x2="4440" y2="396" /><line x1="4480" y1="0" x2="4480" y2="396" /><line x1="4520" y1="0" x2="4520" y2="396" /><line x1="4560" y1="0" x2="4560" y2="396" /><line x1="4600" y1="0" x2="4600" y2="396" /><line x1="4640" y1="0" x2="4640" y2="396" /><line x1="4680" y1="0" x2="4680" y2="396" /><line x1="4720" y1="0" x2="4720" y2="396" /><line x1="4760" y1="0" x2="4760" y2="396" /><line x1="4800" y1="0" x2="4800" y2="396" /><line x1="4840" y1="0" x2="4840" y2="396" /><line x1="4880" y1="0" x2="4880" y2="396" /><line x1="4920" y1="0" x2="4920" y2="396" /><line x1="4960" y1="0" x2="4960" y2="396" /><line x1="5000" y1="0" x2="5000" y2="396" /><line x1="5040" y1="0" x2="5040" y2="396" /><line x1="5080" y1="0" x2="5080" y2="396" /><line x1="5120" y1="0" x2="5120" y2="396" /><line x1="5160" y1="0" x2="5160" y2="396" /><line x1="5200" y1="0" x2="5200" y2="396" /><line x1="5240" y1="0" x2="5240" y2="396" /><line x1="5280" y1="0" x2="5280" y2="396" /><line x1="5320" y1="0" x2="5320" y2="396" /><line x1="5360" y1="0" x2="5360" y2="396" /><line x1="5400" y1="0" x2="5400" y2="396" /><line x1="5440" y1="0" x2="5440" y2="396" /><line x1="5480" y1="0" x2="5480" y2="396" /><line x1="5520" y1="0" x2="5520" y2="396" /><line x1="5560" y1="0" x2="5560" y2="396" /><line x1="5600" y1="0" x2="5600" y2="396" /><line x1="5640" y1="0" x2="5640" y2="396" /><line x1="5680" y1="0" x2="5680" y2="396" /><line x1="5720" y1="0" x2="5720" y2="396" /><line x1="5760" y1="0" x2="5760" y2="396" /><line x1="5800" y1="0" x2="5800" y2="396" /><line x1="5840" y1="0" x2="5840" y2="396" /><line x1="5880" y1="0" x2="5880" y2="396" /><line x1="5920" y1="0" x2="5920" y2="396" /><line x1="5960" y1="0" x2="5960" y2="396" /><line x1="6000" y1="0" x2="6000" y2="396" /><line x1="6040" y1="0" x2="6040" y2="396" /><line x1="6080" y1="0" x2="6080" y2="396" /><line x1="6120" y1="0" x2="6120" y2="396" /><line x1="6160" y1="0" x2="6160" y2="396" /><line x1="6200" y1="0" x2="6200" y2="396" /><line x1="6240" y1="0" x2="6240" y2="396" /><line x1="6280" y1="0" x2="6280" y2="396" /><line x1="6320" y1="0" x2="6320" y2="396" /><line x1="6360" y1="0" x2="6360" y2="396" />
  </g>

  <!-- Portrait -->
  <text class="ascii"><tspan x="1000" y="40.00" xml:space="preserve">------====-:                                                                            . </tspan>
<tspan x="1000" y="46.00" xml:space="preserve">----=-::..                     ....                                                       </tspan>
<tspan x="1000" y="52.00" xml:space="preserve">-=--:.                ..::::-==++++==-::.                                                 </tspan>
<tspan x="1000" y="58.00" xml:space="preserve">-:.               ..:=#%@@%@@@@@@@@%%%**=:.                                               </tspan>
<tspan x="1000" y="64.00" xml:space="preserve">              .-==*%@@%###%%%%%@%@%%#%###*+-.                                             </tspan>
<tspan x="1000" y="70.00" xml:space="preserve">             .*@@@@@%###%%@@@@@%@@%@##%@@%#+=.                                            </tspan>
<tspan x="1000" y="76.00" xml:space="preserve">             :@@%%@%%%%@@@@%@@@@%@@@@@%%%@@+=-                                            </tspan>
<tspan x="1000" y="82.00" xml:space="preserve">             .#@%@@@@@@%%%%@@@@@@@@@@@@@%%@@==:                                           </tspan>
<tspan x="1000" y="88.00" xml:space="preserve">            :+@@@@@%@@@@%@@@@@@@@@@@@@@@@@@@%=+.                                          </tspan>
<tspan x="1000" y="94.00" xml:space="preserve">           .*@@@@@@@@@@@@@@@@@@@@@@@@@@@@@@@@+=:                                          </tspan>
<tspan x="1000" y="100.00" xml:space="preserve">            +@@@@%@@@%%%%########%%@@@@@@@@@@+=:                                          </tspan>
<tspan x="1000" y="106.00" xml:space="preserve">            .%@%@@@@@%%#*+*##%%##%%#%@@@@@@@@==:                                          </tspan>
<tspan x="1000" y="112.00" xml:space="preserve">             :@@@@%###%%%###%%#######%@@@@@@%==.                                          </tspan>
<tspan x="1000" y="118.00" xml:space="preserve">              -@@%*%%%%%%#*#%#%%%%####@@@@@@++:                                           </tspan>
<tspan x="1000" y="124.00" xml:space="preserve">               =@@*###***+**********##@@@@@==:                                            </tspan>
<tspan x="1000" y="130.00" xml:space="preserve">                *@+++**#%*###*+++++**#%%%@+=:                                             </tspan>
<tspan x="1000" y="136.00" xml:space="preserve">                -%***##########******##*#%==.                                             </tspan>
<tspan x="1000" y="142.00" xml:space="preserve">                :%**%#%#*++*#####*******##-=.                                             </tspan>
<tspan x="1000" y="148.00" xml:space="preserve">                .@**##%*+++**##******##*%*=-                                              </tspan>
<tspan x="1000" y="154.00" xml:space="preserve">                 =%****************###%%%==.                                              </tspan>
<tspan x="1000" y="160.00" xml:space="preserve">                  =@#*****+******#%%###%%+-.                                              </tspan>
<tspan x="1000" y="166.00" xml:space="preserve">                   -##***+***###%%%%##%%@@%*-:.                                           </tspan>
<tspan x="1000" y="172.00" xml:space="preserve">                    :#%###%%%%%%%%%##@%%%%@@@@#+-:...                                     </tspan>
<tspan x="1000" y="178.00" xml:space="preserve">                     =@######%%%##**@@%%%%%%@@@@%+++=--:::::...                           </tspan>
<tspan x="1000" y="184.00" xml:space="preserve">                     .*#*######****@@%%%%%%%%%%%*+++++++**#%%%*=:.                        </tspan>
<tspan x="1000" y="190.00" xml:space="preserve">                  .:=*%#*********#@@@#%%%%%%%%%%**+++++**#%#%%@%+=:                       </tspan>
<tspan x="1000" y="196.00" xml:space="preserve">                .-#@@@@@##******%@@@%##%%#%@%%%%#*****##%%#####%%+=:                      </tspan>
<tspan x="1000" y="202.00" xml:space="preserve">              .-*@@%%#@@@%##***%@@@%%%%%#%%@%%%%########%%%%%%%%@@==:                     </tspan>
<tspan x="1000" y="208.00" xml:space="preserve">           .:=*##%%##%@@@%%#*#@@@@@%#%%%%%%%%%%%########%%%%%###%@@==:                    </tspan>
<tspan x="1000" y="214.00" xml:space="preserve">         .-+**+*%%##%%%@@@%##@@@@@%%###%%%%%%%%%################*#%#-=.                   </tspan>
<tspan x="1000" y="220.00" xml:space="preserve">       :=***++*%%%%%%%@@@@@#@@@@@%#%%##%%%%%%%%###################*#=-:                   </tspan>
<tspan x="1000" y="226.00" xml:space="preserve">      -#***++*#%%%%%%%@@@@@@@%@@@%#####%%%%%%%%###################%%@*=-.                 </tspan>
<tspan x="1000" y="232.00" xml:space="preserve">     .%####***#%%#%%%%@@@@@@@@@@%#####%#%%%%%%########%%#############@%+=:                </tspan>
<tspan x="1000" y="238.00" xml:space="preserve">     :@%%%%%**#%%##%%%@@%@@@@@@@%######%%%#%%%########%%##############%%==:               </tspan>
<tspan x="1000" y="244.00" xml:space="preserve">     -@%#%%#**%%#####%@@@@@@+@@%#####%#%%##%##########%%%############%##%*=-.             </tspan>
<tspan x="1000" y="250.00" xml:space="preserve">     :@%##%###%%%#%%%%@@@@@@#@@%######%%%##############%%%##############%@#=-:            </tspan>
<tspan x="1000" y="256.00" xml:space="preserve">     :@%##%%##%######%@@@@%@@@@#######%%%#########%%##%%%%%############%%#%%=-:           </tspan>
<tspan x="1000" y="262.00" xml:space="preserve">     .#%#%###########%@@%@@%%@%######%%%###########%##%%%%%#############%##%@=-:          </tspan>
<tspan x="1000" y="268.00" xml:space="preserve">     .%%#############%@@%@%%@@%#####%%%###############%%@%%%################%%+=:.        </tspan>
<tspan x="1000" y="274.00" xml:space="preserve">     .%%#############%@@%@@@@@%#####%%################%%%@%%#################%%#=-:       </tspan>
<tspan x="1000" y="280.00" xml:space="preserve">     .*@#%%##########%@@%@@%@@#####%%%################%%%%@%%##################@#:-.      </tspan>
<tspan x="1000" y="286.00" xml:space="preserve">     .%@##%%#########%@@%@@*%@#####%%################%%%%%%@%##################%@*:-.     </tspan>
<tspan x="1000" y="292.00" xml:space="preserve">      *@%##%#########%@@%@@@@@#%##%%%###############%%%%%%%%@%#################%%@*:-.    </tspan>
<tspan x="1000" y="298.00" xml:space="preserve">      :@@%%%#########%@%%@%%@%#%##%%%###############%%%%%%%%%%%###############%%%%@+::    </tspan>
<tspan x="1000" y="304.00" xml:space="preserve">       +@#%%#########%@%%@@%@%#%#%%%%################%%%%%%%%%%################%%%%@--:   </tspan>
<tspan x="1000" y="310.00" xml:space="preserve">       =@%%%#########%@%@@@%@%###@%%%###############%%%%%%%%%%%%###############%%%%@%:-.  </tspan>
<tspan x="1000" y="316.00" xml:space="preserve">       :@%#%#########%@%%@@@@%##%@%%################%%%%%%%%%%%%%%#############%%%%%@*:-. </tspan>
<tspan x="1000" y="322.00" xml:space="preserve">       .%%#%########%%@@%@#@@%#%@@%##################%%%%%%%%%%%*%##%%%%%%%%%###%%%%%@-:: </tspan>
<tspan x="1000" y="328.00" xml:space="preserve">       .#@#%#########%@@%@#@@%#@@%%#################%%%%%%%%%%%@-@%#%%%%########%%%%%@*:- </tspan>
<tspan x="1000" y="334.00" xml:space="preserve">        =@%%####%####%@%%@@@@#%%%%###################%%%%%%%%%%@+#@%%%%%%%%####%%%%%%@*:- </tspan>
<tspan x="1000" y="340.00" xml:space="preserve">        :@@%####%%###%@%%%%@%%@%%%##################%%%%%%%%%%%@@.#@@%%%%%%%%%%%%%%%%@=:: </tspan>
<tspan x="1000" y="346.00" xml:space="preserve">        .*@%####%%###%@@%%%@%%%%%%##################%%%%%%%%%%%%@=:-@@%%%%######%%%%@%:-. </tspan>
<tspan x="1000" y="352.00" xml:space="preserve">         +@%#####%%#%%@@@%@@%%%%%###################%%%%%%%%%%%%@#:.#@%%##%%%%%%%%%%@+::  </tspan>
<tspan x="1000" y="358.00" xml:space="preserve">         :@%#####%%%%%@@@@@%%%%%#####################%%%%%%%%%%%@%-.=@%###%%##%%%%%@@:-.  </tspan>
<tspan x="1000" y="364.00" xml:space="preserve">         .#@######%%%%@@%#@%%%#######################%%%%%%%%%%%%@+.#@#######%%%%%%@+::   </tspan>
<tspan x="1000" y="370.00" xml:space="preserve">         .#%#######%%%@@@%@%%########################%%%%%%%%%%%%@*-@%########%%%%@@:-.   </tspan>
<tspan x="1000" y="376.00" xml:space="preserve">         .*@########%%@@%@@%%#########################%%%%%%%%%%%%##@########%#%%%@+::    </tspan>
<tspan x="1000" y="382.00" xml:space="preserve">          -@#########%@%%%@%#########################%%%%%%%%%%%%%%%%#########%%%@%:-.    </tspan></text>
  
  <!-- Left content -->
  <g class="mono" transform="translate(180, 160)">
    <text x="0" y="0" class="handle">github.com/h4ash-abdul</text>
    <text x="0" y="50" class="title">Abdul Haashir</text>
    <text x="0" y="90" class="subtitle">&lt; Aspiring AI Engineer /&gt;</text>
    <text x="0" y="140" class="quote">"icarus laughed as he fell, for he knew to fall means to have once soared"</text>
  </g>

  <!-- Fake Scanline -->
  <rect x="0" y="150" width="1584" height="40" fill="url(#scanline)" />
</svg>
